<?xml version="1.0" standalone="no"?>
<!DOCTYPE svg PUBLIC "-//W3C//DTD SVG 20010904//EN"
 "http://www.w3.org/TR/2001/REC-SVG-20010904/DTD/svg10.dtd">
<svg version="1.0" xmlns="http://www.w3.org/2000/svg"
 width="520.000000pt" height="520.000000pt" viewBox="0 0 520.000000 520.000000"
 preserveAspectRatio="xMidYMid meet">
<metadata>
Created by potrace 1.14, written by Peter Selinger 2001-2017
</metadata>
<g transform="translate(0.000000,520.000000) scale(0.100000,-0.100000)"
fill="#000000" stroke="none">
<path d="M2670 4980 c0 -5 5 -10 11 -10 5 0 7 5 4 10 -3 6 -8 10 -11 10 -2 0
-4 -4 -4 -10z"/>
<path d="M2446 4962 c-3 -5 1 -9 9 -9 8 0 12 4 9 9 -3 4 -7 8 -9 8 -2 0 -6 -4
-9 -8z"/>
<path d="M2593 4957 c0 -7 -2 -16 -3 -22 -6 -26 2 -34 30 -30 16 2 32 0 34 -4
8 -12 -74 -7 -82 5 -4 6 -17 16 -29 23 -20 10 -22 9 -16 -5 4 -10 2 -15 -3
-11 -6 3 -16 2 -23 -2 -9 -6 -10 -11 -2 -15 6 -4 11 -3 11 3 0 5 9 8 20 6 13
-3 18 0 14 7 -4 7 -2 8 5 4 6 -4 9 -11 6 -16 -3 -4 1 -10 7 -13 7 -2 -24 -3
-69 -2 -52 1 -80 -2 -76 -8 3 -6 1 -7 -5 -3 -6 3 -9 19 -6 34 3 20 2 23 -6 12
-6 -10 -10 -11 -10 -2 0 6 -5 12 -11 12 -8 0 -9 -4 0 -13 6 -8 7 -18 3 -22 -4
-5 -1 -5 5 -1 9 5 11 2 7 -9 -5 -13 -10 -10 -25 14 -10 17 -22 31 -26 31 -3 0
-3 -3 0 -7 12 -11 -27 -32 -40 -21 -17 13 -53 0 -53 -20 0 -14 2 -13 13 2 11
15 17 16 35 7 14 -7 23 -8 27 -1 3 5 11 10 16 10 6 0 7 -4 4 -10 -3 -6 1 -7 9
-4 9 3 16 2 16 -4 0 -6 -11 -9 -25 -7 -14 1 -28 -1 -30 -5 -3 -5 -16 -7 -30
-5 -14 1 -25 -3 -25 -9 0 -6 -4 -5 -9 3 -5 8 -11 9 -15 3 -3 -5 -16 -9 -28 -8
-13 1 -33 -1 -45 -6 -13 -4 -25 -3 -28 3 -4 5 -3 9 2 8 21 -4 29 3 30 24 l2
22 -12 -22 c-7 -12 -16 -23 -22 -25 -5 -1 -9 -7 -7 -14 1 -6 -5 -11 -13 -11
-9 0 -14 6 -11 14 3 8 2 12 -3 8 -5 -3 -12 1 -14 7 -4 10 -8 9 -16 -2 -6 -8
-11 -19 -11 -25 0 -5 4 -3 10 5 5 8 12 11 17 7 12 -12 -17 -26 -44 -21 -14 3
-22 1 -19 -4 5 -9 -1 -10 -49 -13 -13 -1 -22 -5 -20 -9 3 -5 -6 -7 -20 -5 -14
1 -25 -2 -25 -7 0 -5 -4 -7 -10 -3 -5 3 -7 13 -4 23 5 14 4 14 -4 2 -6 -8 -9
-17 -7 -21 7 -11 -39 -26 -67 -22 -14 2 -29 -1 -33 -7 -4 -6 1 -7 11 -3 12 4
15 3 10 -6 -5 -7 -14 -10 -21 -7 -7 2 -22 -2 -34 -10 -11 -8 -21 -12 -21 -8 0
3 -7 1 -15 -6 -8 -6 -19 -9 -24 -6 -5 4 -13 0 -18 -7 -11 -19 -41 -28 -47 -14
-2 7 -5 4 -5 -6 -1 -10 -5 -16 -10 -12 -5 3 -12 1 -16 -5 -3 -6 -23 -17 -42
-25 -29 -12 -38 -13 -46 -3 -6 9 -7 8 -3 -5 4 -11 0 -20 -12 -24 -9 -4 -35
-18 -57 -31 -22 -14 -42 -25 -45 -25 -6 0 -203 -127 -210 -136 -3 -3 -30 -25
-60 -48 -62 -47 -95 -75 -160 -136 -24 -23 -48 -41 -53 -39 -5 1 -6 -1 -4 -6
3 -4 -18 -31 -47 -59 -29 -28 -67 -70 -85 -92 -18 -22 -38 -38 -44 -34 -6 3
-7 1 -3 -5 6 -10 -7 -31 -41 -67 -7 -7 -9 -16 -5 -20 4 -4 0 -5 -8 -3 -8 1
-14 -4 -15 -12 -1 -8 -6 -14 -13 -12 -7 1 -11 -1 -10 -5 4 -17 -14 -53 -27
-53 -8 0 -17 -5 -21 -12 -4 -7 -3 -8 4 -4 19 11 14 -9 -8 -34 -11 -13 -20 -27
-20 -32 0 -6 -8 -22 -19 -36 -21 -31 -144 -272 -149 -293 -2 -8 -8 -17 -14
-20 -5 -3 -9 -10 -9 -15 1 -5 -4 -24 -10 -42 -10 -31 -16 -57 -18 -75 -1 -5
-5 -6 -11 -2 -5 3 -8 11 -6 18 1 7 1 9 -1 4 -3 -4 -9 -4 -15 -1 -5 4 -2 -5 7
-20 10 -15 13 -26 6 -26 -6 0 -10 -3 -10 -7 4 -23 -3 -31 -24 -28 -20 4 -21 3
-4 -9 19 -15 23 -36 6 -36 -5 0 -7 6 -3 13 5 9 3 9 -7 -1 -12 -11 -12 -14 1
-22 10 -7 11 -10 2 -10 -6 0 -11 -3 -10 -7 1 -5 -2 -28 -6 -53 -5 -25 -8 -51
-7 -57 1 -7 -3 -13 -9 -13 -6 0 -8 6 -4 13 5 9 3 9 -7 -1 -9 -8 -10 -15 -4
-20 11 -7 11 -18 1 -81 -7 -42 -14 -50 -27 -31 -9 13 -10 12 -6 -2 3 -9 1 -19
-6 -22 -7 -3 -2 -3 9 -1 17 5 21 1 19 -17 -1 -13 -3 -23 -4 -23 -8 0 -7 -36 0
-41 5 -3 5 -13 1 -22 -4 -9 -8 -61 -8 -114 1 -59 -3 -98 -9 -98 -5 0 -3 -5 5
-10 12 -8 12 -10 -5 -10 -14 0 -16 -3 -7 -9 8 -5 15 -35 17 -77 6 -103 15
-208 20 -235 2 -13 12 -67 21 -119 9 -52 17 -109 18 -127 1 -17 4 -29 7 -27 9
5 20 -56 12 -69 -3 -6 -1 -7 5 -3 8 4 12 -1 13 -13 2 -24 3 -29 14 -56 4 -11
27 -70 51 -131 23 -62 52 -130 64 -153 11 -23 18 -47 14 -54 -4 -7 -4 -9 1 -5
4 4 21 -18 37 -50 17 -31 34 -62 40 -69 5 -7 6 -18 2 -25 -4 -7 -4 -10 1 -6 7
7 55 -51 55 -66 0 -3 6 -14 14 -23 8 -10 49 -65 92 -123 43 -58 89 -115 102
-128 12 -12 21 -22 18 -22 -2 0 18 -22 45 -50 48 -49 61 -68 37 -54 -8 4 -9 3
-5 -2 5 -5 15 -9 23 -9 7 0 14 -4 14 -10 1 -5 12 -16 26 -23 14 -7 22 -18 18
-24 -4 -6 -3 -8 3 -5 5 3 25 -8 44 -26 19 -18 52 -46 74 -62 22 -17 46 -35 53
-42 7 -7 26 -20 42 -30 17 -9 30 -21 30 -25 0 -4 6 -8 14 -8 7 0 20 -7 27 -16
7 -9 24 -20 37 -25 13 -5 20 -13 17 -19 -3 -6 1 -7 9 -4 9 3 16 1 16 -5 0 -6
6 -11 14 -11 8 0 22 -7 30 -16 9 -8 16 -12 16 -8 0 3 6 2 13 -4 25 -21 203
-105 314 -149 191 -74 454 -134 661 -150 150 -11 406 -5 502 12 14 3 43 7 65
11 22 3 47 7 55 9 8 2 31 7 50 10 36 6 126 30 240 64 131 38 312 118 448 198
41 24 77 43 81 43 4 0 16 9 26 20 11 12 25 18 34 15 8 -3 12 -3 9 1 -4 3 21
27 55 52 34 25 64 49 65 54 2 4 10 8 18 8 8 0 14 5 14 10 0 6 4 10 10 10 5 0
24 15 43 32 104 102 149 138 159 132 7 -5 8 -3 3 5 -9 15 104 133 119 124 5
-3 6 -1 2 6 -6 10 18 45 127 181 7 8 21 32 32 53 11 20 23 37 27 37 3 0 10 9
13 20 4 11 11 17 17 14 7 -5 8 -2 3 6 -5 8 -2 18 9 26 10 7 17 16 17 21 -1 12
53 117 62 121 4 2 7 8 7 13 0 4 12 34 26 66 30 66 40 90 48 117 5 16 9 16 24
5 14 -11 15 -11 5 1 -18 20 -16 40 5 40 15 0 15 2 2 11 -11 8 -12 12 -2 16 6
2 9 9 6 14 -3 6 0 16 6 24 7 8 9 15 4 15 -4 0 3 12 17 27 13 15 16 22 7 14
-15 -11 -17 -10 -13 8 2 12 7 26 11 33 4 6 9 21 11 32 11 68 16 86 24 86 4 0
6 9 4 20 -2 11 -1 20 3 20 4 0 8 10 9 23 0 12 3 38 6 57 3 19 8 62 12 95 4 33
13 66 19 74 9 12 8 13 -3 6 -9 -5 -12 -4 -8 2 3 5 7 33 8 61 2 29 7 52 13 52
7 0 6 4 -1 11 -5 5 -8 21 -5 35 3 18 7 22 13 13 4 -7 15 -14 23 -15 9 -1 13 2
10 8 -3 5 -8 7 -11 4 -2 -2 -12 3 -21 12 -20 20 -24 117 -5 117 6 0 15 4 20 8
4 5 3 8 -2 7 -27 -6 -31 4 -30 89 0 52 -4 87 -9 83 -5 -3 -7 1 -4 9 3 8 2 23
-2 34 -4 11 -3 26 2 33 7 8 7 12 0 12 -12 0 -11 18 2 39 6 10 5 12 -2 7 -7 -4
-13 -4 -13 1 -1 4 -3 17 -4 28 -4 32 -13 73 -20 96 -5 16 -4 20 6 15 8 -4 6
-1 -5 8 -10 8 -16 22 -13 31 4 8 2 15 -2 15 -5 0 -13 19 -17 43 -4 23 -8 44
-9 47 -3 17 -38 119 -47 136 -5 12 -11 33 -11 47 -1 14 -5 23 -9 20 -7 -4 -12
15 -11 44 1 7 -3 11 -7 8 -7 -5 -40 62 -46 95 -2 8 -8 16 -13 18 -6 2 -11 11
-11 20 0 10 -9 28 -20 42 -11 14 -20 33 -20 43 0 9 -4 17 -8 17 -7 0 -20 21
-40 64 -3 5 1 5 8 1 9 -5 11 -4 6 4 -4 6 -11 9 -16 6 -4 -3 -14 8 -22 25 -7
16 -16 30 -20 30 -5 0 -8 7 -8 15 0 8 -4 15 -8 15 -13 0 -43 59 -36 72 4 6 3
8 -3 5 -13 -8 -65 57 -55 68 4 5 1 5 -6 1 -7 -4 -15 0 -19 9 -6 18 -21 34
-109 126 -30 31 -54 62 -54 69 0 7 -3 11 -6 7 -7 -7 -64 49 -64 63 0 6 -6 9
-12 7 -7 -1 -12 4 -11 10 2 7 -3 12 -10 10 -6 -1 -11 4 -9 11 1 8 -2 11 -7 8
-5 -3 -25 10 -45 29 -20 19 -36 33 -36 30 0 -3 -9 3 -20 12 -11 10 -20 24 -20
33 0 11 -2 12 -8 3 -6 -10 -12 -8 -24 5 -9 9 -32 28 -52 42 -26 18 -34 30 -30
45 5 18 4 19 -9 3 -12 -16 -15 -15 -43 7 -16 13 -33 21 -38 18 -5 -4 -6 -1 -3
5 9 13 -2 42 -15 42 -6 0 -5 -6 2 -15 9 -11 9 -15 1 -15 -6 0 -14 7 -18 16 -5
13 -7 13 -14 2 -7 -10 -9 -10 -9 0 0 6 -7 12 -15 12 -8 0 -15 5 -15 10 0 6 -6
10 -12 10 -7 0 -24 9 -37 19 -14 10 -31 17 -38 14 -7 -3 -13 2 -13 11 0 15
-11 20 -36 17 -13 -1 -28 28 -19 37 3 3 5 0 5 -7 0 -7 5 -9 12 -5 7 5 9 2 4
-7 -4 -8 1 -3 12 11 12 14 18 27 15 30 -3 3 -8 -1 -10 -7 -7 -19 -27 -16 -47
6 -13 14 -14 20 -5 23 9 3 7 7 -5 11 -9 4 -15 3 -11 -2 3 -5 1 -12 -5 -16 -10
-6 -14 7 -11 32 2 12 -16 12 -37 -1 -16 -10 -44 12 -35 28 3 6 0 6 -8 -1 -21
-20 -34 -15 -16 5 14 15 14 19 3 19 -8 0 -15 -3 -14 -6 0 -3 -1 -8 -2 -11 -9
-24 -7 -41 5 -36 8 3 17 1 20 -5 4 -5 11 -6 17 -3 7 5 8 2 2 -7 -5 -9 1 -8 19
4 20 13 28 14 26 5 -3 -28 2 -37 20 -33 11 2 26 -3 33 -12 11 -14 10 -15 -12
-9 -24 7 -24 6 -6 -8 11 -9 15 -16 9 -16 -6 0 -16 7 -23 15 -7 8 -17 12 -23 8
-6 -4 -7 -1 -2 7 6 10 4 12 -8 7 -8 -3 -21 1 -27 8 -7 8 -16 13 -20 10 -4 -3
-18 4 -31 14 -13 10 -30 16 -36 14 -7 -3 -13 0 -13 7 0 6 -6 10 -12 9 -15 -3
-68 21 -68 30 0 4 10 8 22 8 19 2 20 0 8 -8 -12 -9 -12 -10 3 -5 10 3 15 2 12
-4 -3 -5 4 -7 15 -5 11 2 20 -1 20 -6 0 -6 5 -7 12 -3 6 4 8 3 5 -3 -3 -5 0
-10 8 -10 11 0 12 4 4 14 -9 10 -8 13 2 13 9 1 8 4 -4 11 -13 7 -22 7 -31 0
-7 -6 -16 -8 -20 -4 -4 4 4 13 16 21 18 11 19 12 3 7 -42 -14 -66 -12 -75 6
-8 13 -6 20 7 28 10 6 13 11 7 11 -15 0 -36 -25 -27 -33 3 -4 2 -7 -4 -7 -18
0 -22 12 -12 34 9 19 9 19 -4 4 -8 -10 -19 -18 -26 -18 -6 0 -11 -4 -11 -9 0
-5 8 -8 18 -7 9 0 16 -5 14 -12 -2 -9 5 -12 20 -8 13 3 17 3 10 0 -6 -3 -10
-10 -6 -15 8 -13 -17 -7 -33 8 -7 6 -22 9 -33 6 -12 -3 -20 0 -20 6 0 7 -4 10
-9 7 -14 -9 -8 28 7 39 10 8 10 14 -3 30 -16 20 -16 20 -6 -2 8 -16 7 -22 -4
-27 -8 -3 -14 -11 -13 -18 2 -8 -6 -12 -22 -10 -14 2 -35 4 -47 4 -17 2 -20 5
-11 15 12 14 22 18 14 5 -3 -5 8 -8 23 -8 18 0 33 7 41 20 10 17 10 19 -1 9
-20 -19 -33 -16 -18 5 12 15 12 16 -2 5 -9 -7 -18 -10 -22 -7 -3 3 -16 -2 -30
-11 -27 -18 -70 -29 -62 -16 3 5 -2 11 -10 15 -8 3 -17 1 -20 -4 -5 -9 -23 -8
-40 1 -5 3 -22 5 -37 4 -16 -1 -28 2 -28 7 0 5 -5 6 -12 2 -7 -4 -8 -3 -4 4 4
7 2 12 -4 12 -6 0 -9 4 -6 8 2 4 1 14 -4 22 -7 11 -9 6 -7 -15 2 -29 0 -30
-40 -30 -28 0 -39 3 -32 10 6 6 15 10 21 10 6 0 13 6 16 13 4 14 -14 16 -23 2
-3 -5 -11 -10 -17 -10 -7 0 -6 6 2 15 9 10 9 15 1 15 -6 0 -11 -5 -11 -10 0
-6 -11 -4 -24 5 -26 18 -56 11 -56 -13 0 -14 -2 -14 -12 1 -7 10 -24 19 -37
22 -13 2 -20 1 -17 -3 4 -4 12 -8 17 -8 5 -1 14 -2 19 -3 6 0 10 -5 10 -11 0
-5 -9 -9 -19 -7 -24 4 -52 27 -46 37 3 5 2 11 -3 14 -5 3 -9 0 -9 -7z m158
-38 l24 -20 -24 7 c-14 3 -21 2 -18 -3 4 -5 0 -10 -8 -10 -17 0 -19 8 -7 23 4
5 0 1 -10 -8 -18 -20 -38 -24 -38 -7 0 5 4 8 9 4 6 -3 15 4 21 15 13 25 22 25
51 -1z m-141 1 c0 -5 -2 -10 -4 -10 -3 0 -8 5 -11 10 -3 6 -1 10 4 10 6 0 11
-4 11 -10z m515 -50 c3 -5 2 -10 -4 -10 -5 0 -13 5 -16 10 -3 6 -2 10 4 10 5
0 13 -4 16 -10z"/>
<path d="M2810 4961 c0 -6 4 -13 10 -16 6 -3 7 1 4 9 -7 18 -14 21 -14 7z"/>
<path d="M2879 4968 c-5 -18 -6 -38 -1 -34 7 8 12 36 6 36 -2 0 -4 -1 -5 -2z"/>
<path d="M2495 4951 c-3 -5 -2 -12 3 -15 5 -3 9 1 9 9 0 17 -3 19 -12 6z"/>
<path d="M2260 4940 c-12 -7 -10 -9 7 -7 12 0 19 5 17 9 -6 10 -6 10 -24 -2z"/>
<path d="M2556 4938 c3 -5 10 -6 15 -3 13 9 11 12 -6 12 -8 0 -12 -4 -9 -9z"/>
<path d="M2925 4940 c-3 -6 1 -7 9 -4 18 7 21 14 7 14 -6 0 -13 -4 -16 -10z"/>
<path d="M2316 4923 c-6 -14 -5 -15 5 -6 7 7 10 15 7 18 -3 3 -9 -2 -12 -12z"/>
<path d="M2428 4933 c7 -3 16 -2 19 1 4 3 -2 6 -13 5 -11 0 -14 -3 -6 -6z"/>
<path d="M2467 4924 c3 -7 9 -14 14 -14 14 0 10 17 -5 23 -10 4 -13 1 -9 -9z"/>
<path d="M2824 4912 c-10 -15 -8 -18 10 -19 11 -1 16 1 9 4 -7 2 -9 11 -6 19
7 20 0 18 -13 -4z"/>
<path d="M2886 4915 c-6 -16 18 -32 44 -30 8 1 20 -2 25 -5 16 -10 40 -5 38 8
-2 7 4 12 13 12 9 0 12 -5 8 -12 -4 -7 -4 -10 1 -6 4 4 13 1 19 -7 9 -12 14
-11 35 6 13 11 21 22 18 26 -4 3 -15 -5 -26 -18 -11 -13 -20 -19 -21 -13 0 5
6 16 13 24 10 12 9 12 -4 2 -19 -14 -30 -6 -22 16 4 14 3 14 -5 3 -6 -8 -17
-11 -26 -8 -9 4 -15 3 -15 -1 3 -19 -2 -25 -10 -13 -8 12 -12 12 -24 2 -9 -7
-18 -8 -21 -2 -3 5 0 12 6 15 7 3 2 3 -11 0 -16 -4 -21 -3 -17 5 4 6 3 11 -2
11 -6 0 -12 -7 -16 -15z"/>
<path d="M2425 4911 c-3 -5 0 -13 6 -17 8 -4 9 -3 5 4 -4 7 -2 12 3 12 6 0 11
-4 11 -8 0 -4 10 -8 23 -9 21 -2 21 -1 -3 12 -30 17 -37 18 -45 6z"/>
<path d="M2075 4901 c-3 -5 -2 -12 3 -15 5 -3 9 1 9 9 0 17 -3 19 -12 6z"/>
<path d="M2185 4887 c1 -15 9 -22 24 -23 12 -1 23 2 26 5 7 12 -11 31 -31 35
-16 3 -20 -1 -19 -17z m33 0 c8 -10 6 -13 -8 -14 -13 -1 -17 3 -13 13 6 17 8
17 21 1z"/>
<path d="M2034 4875 c1 -8 6 -18 11 -22 4 -4 5 -3 2 4 -4 6 -2 13 5 15 8 3 6
6 -4 10 -10 4 -15 2 -14 -7z"/>
<path d="M2105 4880 c-3 -5 -2 -10 4 -10 5 0 13 5 16 10 3 6 2 10 -4 10 -5 0
-13 -4 -16 -10z"/>
<path d="M2270 4880 c0 -5 5 -10 11 -10 5 0 7 5 4 10 -3 6 -8 10 -11 10 -2 0
-4 -4 -4 -10z"/>
<path d="M3215 4879 c-4 -6 -5 -12 -2 -15 2 -3 7 2 10 11 7 17 1 20 -8 4z"/>
<path d="M3370 4859 c0 -5 5 -7 10 -4 6 3 10 8 10 11 0 2 -4 4 -10 4 -5 0 -10
-5 -10 -11z"/>
<path d="M1956 4851 c-3 -4 1 -17 10 -27 14 -18 15 -18 5 2 -6 12 -7 24 -4 28
3 3 4 6 0 6 -3 0 -8 -4 -11 -9z"/>
<path d="M3309 4843 c-13 -16 -12 -17 4 -4 9 7 17 15 17 17 0 8 -8 3 -21 -13z"/>
<path d="M1870 4840 c0 -5 5 -10 11 -10 5 0 7 5 4 10 -3 6 -8 10 -11 10 -2 0
-4 -4 -4 -10z"/>
<path d="M1986 4836 c8 -20 18 -20 34 -1 9 10 9 15 1 15 -6 0 -11 -5 -11 -11
0 -8 -5 -7 -15 1 -13 11 -14 10 -9 -4z"/>
<path d="M3190 4841 c0 -5 7 -11 14 -14 10 -4 13 -1 9 9 -6 15 -23 19 -23 5z"/>
<path d="M1936 4825 c7 -18 6 -18 -9 -6 -9 7 -17 9 -17 3 0 -14 28 -23 36 -11
3 6 1 16 -5 22 -9 9 -10 7 -5 -8z"/>
<path d="M3396 4818 c3 -4 11 -5 19 -1 21 7 19 12 -4 10 -11 0 -18 -5 -15 -9z"/>
<path d="M1843 4796 c-17 -17 -19 -23 -8 -23 8 0 15 4 15 9 0 5 4 7 8 4 4 -2
9 4 9 15 1 10 1 19 0 18 -1 -1 -12 -11 -24 -23z"/>
<path d="M3540 4800 c-9 -6 -10 -10 -3 -10 6 0 15 5 18 10 8 12 4 12 -15 0z"/>
<path d="M1695 4780 c-3 -5 -1 -10 4 -10 6 0 11 5 11 10 0 6 -2 10 -4 10 -3 0
-8 -4 -11 -10z"/>
<path d="M1766 4774 c-9 -24 -2 -26 12 -4 7 11 8 20 3 20 -5 0 -12 -7 -15 -16z"/>
<path d="M3470 4780 c0 -5 5 -10 10 -10 6 0 10 5 10 10 0 6 -4 10 -10 10 -5 0
-10 -4 -10 -10z"/>
<path d="M1734 4761 c3 -5 -5 -12 -19 -15 -14 -4 -25 -11 -25 -17 0 -8 5 -8
15 1 8 6 19 9 25 5 5 -3 10 -4 10 -1 0 2 3 11 6 20 3 9 1 16 -6 16 -6 0 -9 -4
-6 -9z"/>
<path d="M3570 4760 c-9 -6 -10 -10 -3 -10 6 0 15 5 18 10 8 12 4 12 -15 0z"/>
<path d="M3580 4725 c0 -8 4 -15 10 -15 5 0 7 7 4 15 -4 8 -8 15 -10 15 -2 0
-4 -7 -4 -15z"/>
<path d="M1593 4715 c0 -8 4 -12 9 -9 5 3 6 10 3 15 -9 13 -12 11 -12 -6z"/>
<path d="M1651 4714 c0 -11 3 -14 6 -6 3 7 2 16 -1 19 -3 4 -6 -2 -5 -13z"/>
<path d="M3475 4720 c3 -5 8 -10 11 -10 2 0 4 5 4 10 0 6 -5 10 -11 10 -5 0
-7 -4 -4 -10z"/>
<path d="M3650 4726 c0 -2 7 -7 16 -10 8 -3 12 -2 9 4 -6 10 -25 14 -25 6z"/>
<path d="M3627 4677 c-3 -7 1 -21 9 -32 8 -10 14 -15 14 -11 0 4 13 -2 30 -14
16 -12 34 -18 40 -15 5 3 10 2 10 -4 0 -6 9 -15 20 -21 14 -7 20 -7 20 0 0 5
-7 10 -16 10 -8 0 -12 5 -9 10 4 6 10 8 15 5 4 -3 11 2 14 10 5 13 2 14 -15 5
-15 -9 -24 -8 -37 2 -11 9 -14 10 -8 1 4 -7 3 -13 -3 -13 -21 0 -21 20 0 41
18 18 19 21 5 16 -10 -4 -20 -7 -22 -7 -2 0 -4 -7 -4 -15 0 -8 -5 -15 -11 -15
-5 0 -8 4 -5 9 3 5 -2 15 -11 22 -12 10 -14 10 -9 2 4 -7 3 -13 -3 -13 -19 0
-21 19 -4 29 16 9 16 10 2 11 -9 0 -19 -6 -22 -13z"/>
<path d="M3749 4657 c6 -8 7 -18 3 -22 -4 -5 -1 -5 6 -1 10 6 10 11 1 22 -6 8
-14 14 -16 14 -3 0 0 -6 6 -13z"/>
<path d="M3840 4620 c8 -5 20 -10 25 -10 6 0 3 5 -5 10 -8 5 -19 10 -25 10 -5
0 -3 -5 5 -10z"/>
<path d="M3781 4594 c0 -11 3 -14 6 -6 3 7 2 16 -1 19 -3 4 -6 -2 -5 -13z"/>
<path d="M3815 4591 c-3 -5 0 -13 6 -17 7 -4 9 -3 5 4 -3 5 0 13 6 15 9 4 10
6 1 6 -6 1 -14 -3 -18 -8z"/>
<path d="M3834 4559 c-5 -9 13 -49 22 -49 2 0 0 9 -6 19 -14 26 -13 31 5 25 8
-4 15 -2 15 3 0 12 -29 13 -36 2z"/>
<path d="M3926 4542 c-3 -5 1 -9 9 -9 8 0 12 4 9 9 -3 4 -7 8 -9 8 -2 0 -6 -4
-9 -8z"/>
<path d="M3873 4521 c0 -11 5 -18 9 -15 4 3 5 11 1 19 -7 21 -12 19 -10 -4z"/>
<path d="M3975 4520 c3 -5 8 -10 11 -10 2 0 4 5 4 10 0 6 -5 10 -11 10 -5 0
-7 -4 -4 -10z"/>
<path d="M3930 4490 c-8 -5 -12 -12 -9 -15 4 -3 12 1 19 10 14 17 11 19 -10 5z"/>
<path d="M3970 4496 c0 -2 8 -10 18 -17 15 -13 16 -12 3 4 -13 16 -21 21 -21
13z"/>
<path d="M4075 4451 c-3 -5 -2 -12 3 -15 5 -3 9 1 9 9 0 17 -3 19 -12 6z"/>
<path d="M4030 4446 c0 -2 7 -7 16 -10 8 -3 12 -2 9 4 -6 10 -25 14 -25 6z"/>
<path d="M4076 4395 c-3 -9 -11 -13 -17 -9 -8 5 -9 3 -4 -5 6 -10 11 -9 23 3
9 8 13 18 10 21 -3 3 -8 -1 -12 -10z"/>
<path d="M4135 4360 c-3 -5 -1 -10 4 -10 6 0 11 5 11 10 0 6 -2 10 -4 10 -3 0
-8 -4 -11 -10z"/>
<path d="M4310 4321 c0 -6 4 -13 10 -16 6 -3 7 1 4 9 -7 18 -14 21 -14 7z"/>
<path d="M4250 4299 c0 -5 5 -7 10 -4 6 3 10 8 10 11 0 2 -4 4 -10 4 -5 0 -10
-5 -10 -11z"/>
<path d="M4190 4296 c0 -2 8 -10 18 -17 15 -13 16 -12 3 4 -13 16 -21 21 -21
13z"/>
<path d="M4235 4231 c-3 -5 -2 -12 3 -15 5 -3 9 1 9 9 0 17 -3 19 -12 6z"/>
<path d="M4335 4231 c-3 -5 -2 -12 3 -15 5 -3 9 1 9 9 0 17 -3 19 -12 6z"/>
<path d="M4276 4167 c3 -10 9 -15 12 -12 3 3 0 11 -7 18 -10 9 -11 8 -5 -6z"/>
<path d="M4330 4161 c0 -6 4 -13 10 -16 6 -3 7 1 4 9 -7 18 -14 21 -14 7z"/>
<path d="M4330 4120 c0 -5 5 -10 11 -10 5 0 7 5 4 10 -3 6 -8 10 -11 10 -2 0
-4 -4 -4 -10z"/>
<path d="M4449 4117 c6 -8 7 -18 3 -22 -4 -5 -1 -5 6 -1 10 6 10 11 1 22 -6 8
-14 14 -16 14 -3 0 0 -6 6 -13z"/>
<path d="M4399 4073 c-13 -16 -12 -17 4 -4 16 13 21 21 13 21 -2 0 -10 -8 -17
-17z"/>
<path d="M4410 4041 c0 -6 4 -13 10 -16 6 -3 7 1 4 9 -7 18 -14 21 -14 7z"/>
<path d="M4490 4019 c0 -5 5 -7 10 -4 6 3 10 8 10 11 0 2 -4 4 -10 4 -5 0 -10
-5 -10 -11z"/>
<path d="M586 3882 c-2 -4 4 -8 14 -8 10 0 16 4 14 8 -3 4 -9 8 -14 8 -5 0
-11 -4 -14 -8z"/>
<path d="M4716 3838 c3 -5 10 -6 15 -3 13 9 11 12 -6 12 -8 0 -12 -4 -9 -9z"/>
<path d="M4656 3781 c-3 -5 2 -15 12 -22 15 -12 16 -12 5 2 -7 9 -10 19 -6 22
3 4 4 7 0 7 -3 0 -8 -4 -11 -9z"/>
<path d="M4706 3722 c-3 -5 1 -9 9 -9 8 0 12 4 9 9 -3 4 -7 8 -9 8 -2 0 -6 -4
-9 -8z"/>
<path d="M4670 3696 c0 -2 8 -10 18 -17 15 -13 16 -12 3 4 -13 16 -21 21 -21
13z"/>
<path d="M4716 3678 c3 -5 10 -6 15 -3 13 9 11 12 -6 12 -8 0 -12 -4 -9 -9z"/>
<path d="M4759 3673 c-13 -16 -12 -17 4 -4 16 13 21 21 13 21 -2 0 -10 -8 -17
-17z"/>
<path d="M4673 3663 c4 -3 1 -13 -6 -22 -11 -14 -10 -14 5 -2 16 12 16 31 1
31 -4 0 -3 -3 0 -7z"/>
<path d="M4709 3623 c-13 -16 -12 -17 4 -4 16 13 21 21 13 21 -2 0 -10 -8 -17
-17z"/>
<path d="M4753 3595 c0 -8 4 -12 9 -9 4 3 8 9 8 15 0 5 -4 9 -8 9 -5 0 -9 -7
-9 -15z"/>
<path d="M4815 3369 c-4 -6 -5 -12 -2 -15 2 -3 7 2 10 11 7 17 1 20 -8 4z"/>
<path d="M4896 3342 c-3 -5 1 -9 9 -9 8 0 12 4 9 9 -3 4 -7 8 -9 8 -2 0 -6 -4
-9 -8z"/>
<path d="M4835 3330 c-4 -6 -11 -7 -17 -4 -7 4 -8 2 -4 -5 6 -9 11 -9 22 0 14
11 18 19 10 19 -3 0 -8 -5 -11 -10z"/>
<path d="M255 3280 c-3 -5 -1 -10 4 -10 6 0 11 5 11 10 0 6 -2 10 -4 10 -3 0
-8 -4 -11 -10z"/>
<path d="M4876 3282 c-3 -5 1 -9 9 -9 8 0 12 4 9 9 -3 4 -7 8 -9 8 -2 0 -6 -4
-9 -8z"/>
<path d="M4835 3271 c-3 -5 -2 -12 3 -15 5 -3 9 1 9 9 0 17 -3 19 -12 6z"/>
<path d="M296 3257 c3 -10 9 -15 12 -12 3 3 0 11 -7 18 -10 9 -11 8 -5 -6z"/>
<path d="M4870 3246 c0 -2 7 -7 16 -10 8 -3 12 -2 9 4 -6 10 -25 14 -25 6z"/>
<path d="M246 3178 c3 -5 10 -6 15 -3 13 9 11 12 -6 12 -8 0 -12 -4 -9 -9z"/>
<path d="M4936 3182 c-3 -5 1 -9 9 -9 8 0 12 4 9 9 -3 4 -7 8 -9 8 -2 0 -6 -4
-9 -8z"/>
<path d="M240 3135 c-7 -9 -11 -17 -9 -20 3 -2 10 5 17 15 14 24 10 26 -8 5z"/>
<path d="M4953 3125 c0 -8 4 -12 9 -9 5 3 6 10 3 15 -9 13 -12 11 -12 -6z"/>
<path d="M243 3095 c-7 -8 -9 -16 -4 -19 5 -3 12 1 15 10 8 22 4 25 -11 9z"/>
<path d="M200 3086 c0 -2 8 -10 18 -17 15 -13 16 -12 3 4 -13 16 -21 21 -21
13z"/>
<path d="M4914 3060 c1 -16 8 -35 16 -42 12 -11 12 -11 2 3 -6 8 -10 25 -7 37
2 12 0 24 -4 26 -4 3 -7 -8 -7 -24z"/>
<path d="M235 3051 c-3 -6 -10 -9 -15 -6 -5 3 -11 1 -15 -4 -3 -6 4 -8 16 -6
25 5 35 13 27 21 -3 3 -9 0 -13 -5z"/>
<path d="M214 2981 c1 -31 9 -40 21 -21 3 6 1 10 -5 10 -6 0 -9 4 -6 8 2 4 1
14 -4 21 -5 9 -7 2 -6 -18z"/>
<path d="M170 2980 c0 -5 5 -10 11 -10 5 0 7 5 4 10 -3 6 -8 10 -11 10 -2 0
-4 -4 -4 -10z"/>
<path d="M4936 2967 c3 -10 9 -15 12 -12 3 3 0 11 -7 18 -10 9 -11 8 -5 -6z"/>
<path d="M4910 2961 c0 -6 4 -13 10 -16 6 -3 7 1 4 9 -7 18 -14 21 -14 7z"/>
<path d="M175 2939 c-4 -5 -3 -9 2 -8 22 4 43 -2 38 -11 -3 -5 -1 -10 5 -10 7
0 10 5 8 12 -6 16 -46 29 -53 17z"/>
<path d="M4970 2940 c0 -5 5 -10 11 -10 5 0 7 5 4 10 -3 6 -8 10 -11 10 -2 0
-4 -4 -4 -10z"/>
<path d="M4930 2918 c0 -4 4 -8 9 -8 6 0 12 4 15 8 3 5 -1 9 -9 9 -8 0 -15 -4
-15 -9z"/>
<path d="M4956 2882 c-3 -5 1 -9 9 -9 8 0 12 4 9 9 -3 4 -7 8 -9 8 -2 0 -6 -4
-9 -8z"/>
<path d="M4990 2878 c0 -4 4 -8 9 -8 6 0 12 4 15 8 3 5 -1 9 -9 9 -8 0 -15 -4
-15 -9z"/>
<path d="M196 2838 c3 -5 10 -6 15 -3 13 9 11 12 -6 12 -8 0 -12 -4 -9 -9z"/>
<path d="M4993 2835 c0 -8 4 -12 9 -9 5 3 6 10 3 15 -9 13 -12 11 -12 -6z"/>
<path d="M150 2803 c0 -6 8 -17 18 -24 16 -13 16 -13 2 6 -8 11 -16 22 -17 24
-2 2 -3 0 -3 -6z"/>
<path d="M180 2799 c0 -5 5 -7 10 -4 6 3 10 8 10 11 0 2 -4 4 -10 4 -5 0 -10
-5 -10 -11z"/>
<path d="M196 2782 c-3 -5 1 -9 9 -9 8 0 12 4 9 9 -3 4 -7 8 -9 8 -2 0 -6 -4
-9 -8z"/>
<path d="M4947 2779 c7 -7 15 -10 18 -7 3 3 -2 9 -12 12 -14 6 -15 5 -6 -5z"/>
<path d="M4950 2757 c0 -2 6 -10 14 -16 11 -9 16 -9 22 1 4 7 4 10 -1 6 -4 -4
-14 -3 -22 3 -7 6 -13 9 -13 6z"/>
<path d="M193 2715 c0 -14 3 -25 8 -25 4 0 6 10 4 21 -6 32 -12 34 -12 4z"/>
<path d="M190 2670 c0 -5 5 -10 11 -10 5 0 7 5 4 10 -3 6 -8 10 -11 10 -2 0
-4 -4 -4 -10z"/>
<path d="M190 2630 c-9 -6 -10 -10 -3 -10 6 0 15 5 18 10 8 12 4 12 -15 0z"/>
<path d="M5016 2622 c-3 -5 1 -9 9 -9 8 0 12 4 9 9 -3 4 -7 8 -9 8 -2 0 -6 -4
-9 -8z"/>
<path d="M5016 2462 c-3 -5 1 -9 9 -9 8 0 12 4 9 9 -3 4 -7 8 -9 8 -2 0 -6 -4
-9 -8z"/>
<path d="M4970 2259 c0 -5 5 -7 10 -4 6 3 10 8 10 11 0 2 -4 4 -10 4 -5 0 -10
-5 -10 -11z"/>
<path d="M4933 2235 c0 -8 4 -12 9 -9 4 3 8 9 8 15 0 5 -4 9 -8 9 -5 0 -9 -7
-9 -15z"/>
<path d="M4955 2140 c-3 -5 -1 -10 4 -10 6 0 11 5 11 10 0 6 -2 10 -4 10 -3 0
-8 -4 -11 -10z"/>
<path d="M4930 2059 c0 -5 5 -7 10 -4 6 3 10 8 10 11 0 2 -4 4 -10 4 -5 0 -10
-5 -10 -11z"/>
<path d="M4876 1847 c3 -10 9 -15 12 -12 3 3 0 11 -7 18 -10 9 -11 8 -5 -6z"/>
<path d="M4835 1759 c-4 -6 -5 -12 -2 -15 2 -3 7 2 10 11 7 17 1 20 -8 4z"/>
<path d="M4810 1621 c0 -10 29 -36 34 -30 1 2 -6 12 -16 22 -10 9 -18 13 -18
8z"/>
<path d="M4746 1538 c3 -5 10 -6 15 -3 13 9 11 12 -6 12 -8 0 -12 -4 -9 -9z"/>
<path d="M4473 1085 c0 -8 4 -12 9 -9 5 3 6 10 3 15 -9 13 -12 11 -12 -6z"/>
<path d="M817 895 c-4 -8 -3 -16 1 -19 4 -3 9 4 9 15 2 23 -3 25 -10 4z"/>
<path d="M920 780 c-9 -6 -10 -10 -3 -10 6 0 15 5 18 10 8 12 4 12 -15 0z"/>
<path d="M1095 651 c-3 -5 -2 -12 3 -15 5 -3 9 1 9 9 0 17 -3 19 -12 6z"/>
</g>
</svg>
